:FULLY-SPECIFIED
:FORCE-ALL-JOINTS-BE-3DOF
:DEGREES
408
root 7.23269 13.7811 -34.2388 159.835 75.4142 153.507
lfemur 17.8802 -2.60616 -10.0952
ltibia 24.9003 -0 0
lfoot -23.7254 33.3725 -0.000710701
ltoes -25.8985 0 0
rfemur -66.4877 -15.7436 8.45198
rtibia 79.0737 -0 0
rfoot -13.9536 12.7312 2.19512e-05
rtoes 8.38134 -0 0
lowerback 8.47225 4.98686 -11.3273
upperback -2.46292 5.3356 -1.27175
thorax -8.35865 3.13897 4.08371
lowerneck 0.46716 -11.7393 -11.0067
upperneck 3.22525 -15.9554 9.39123
head 2.51627 -7.9678 3.99324
lclavicle -5.21499e-15 1.88348e-14 0
lhumerus -70.0271 -20.3594 106.365
lradius 100.305 -0 0
lwrist 50.7957 0 0
lhand -9.79135 42.8232 -0.000489701
lfingers 7.12502 -0 0
lthumb 16.1846 72.1675 -0.000490648
rclavicle -5.21499e-15 1.88348e-14 0
rhumerus 49.3874 -4.42618 -59.9395
rradius 20.0494 -0 0
rwrist 18.9673 0 0
rhand -21.8858 -33.5507 -0.00225308
rfingers 7.12502 -0 0
rthumb 4.51901 -63.482 -0.00213743
409
root 7.24606 13.779 -34.2369 160.139 75.3877 153.785
lfemur 17.7332 -2.61678 -10.0316
ltibia 25.1084 -0 0
lfoot -23.8105 33.3897 -0.00073775
ltoes -25.6804 0 0
rfemur -66.4874 -15.7645 8.48233
rtibia 79.0632 -0 0
rfoot -13.96 12.724 2.27867e-05
rtoes 8.17393 -0 0
lowerback 8.46863 4.96247 -11.2832
upperback -2.47077 5.30915 -1.24533
thorax -8.35878 3.12487 4.09306
lowerneck 0.449701 -11.7238 -11.0218
upperneck 3.19517 -15.9317 9.39297
head 2.50901 -7.95594 3.99736
lclavicle -5.21499e-15 1.88348e-14 0
lhumerus -70.0434 -20.3197 106.377
lradius 100.289 -0 0
lwrist 50.7761 0 0
lhand -9.76854 42.7788 -0.000508339
lfingers 7.12502 -0 0
lthumb 16.2065 72.1213 -0.000509322
rclavicle -5.21499e-15 1.88348e-14 0
rhumerus 49.4125 -4.41706 -59.9005
rradius 20.049 -0 0
rwrist 18.94 0 0
rhand -21.8233 -33.6253 -0.00233883
rfingers 7.12502 -0 0
rthumb 4.57935 -63.5552 -0.00221878
410
root 7.25957 13.7769 -34.2346 160.443 75.3607 154.064
lfemur 17.5854 -2.6273 -9.96773
ltibia 25.3175 -0 0
lfoot -23.8961 33.4071 -0.000739084
ltoes -25.4612 0 0
rfemur -66.487 -15.7856 8.51282
rtibia 79.0526 -0 0
rfoot -13.9664 12.7168 2.28279e-05
rtoes 7.96551 -0 0
lowerback 8.46497 4.93797 -11.2389
upperback -2.47867 5.28257 -1.21878
thorax -8.35891 3.11069 4.10246
lowerneck 0.432152 -11.7083 -11.0371
upperneck 3.16495 -15.908 9.39471
head 2.50172 -7.94402 4.0015
lclavicle -5.21499e-15 1.88348e-14 0
lhumerus -70.0597 -20.2798 106.388
lradius 100.273 -0 0
lwrist 50.7564 0 0
lhand -9.74562 42.7342 -0.000509258
lfingers 7.12502 -0 0
lthumb 16.2286 72.0748 -0.000510242
rclavicle -5.21499e-15 1.88348e-14 0
rhumerus 49.4377 -4.40791 -59.8613
rradius 20.0486 -0 0
rwrist 18.9126 0 0
rhand -21.7605 -33.7002 -0.00234306
rfingers 7.12502 -0 0
rthumb 4.64 -63.6289 -0.00222279
411
root 7.27301 13.7748 -34.2319 160.743 75.3335 154.339
lfemur 17.439 -2.63755 -9.90441
ltibia 25.5245 -0 0
lfoot -23.9808 33.4243 -0.000714872
ltoes -25.2441 0 0
rfemur -66.4867 -15.8064 8.54302
rtibia 79.0421 -0 0
rfoot -13.9727 12.7097 2.208e-05
rtoes 7.75913 -0 0
lowerback 8.46133 4.91371 -11.1951
upperback -2.48651 5.25626 -1.19248
thorax -8.35904 3.09666 4.11176
lowerneck 0.414772 -11.6929 -11.0521
upperneck 3.13503 -15.8844 9.39642
head 2.4945 -7.93221 4.00559
lclavicle -5.21499e-15 1.88348e-14 0
lhumerus -70.0758 -20.2403 106.399
lradius 100.258 -0 0
lwrist 50.7368 0 0
lhand -9.72293 42.69 -0.000492575
lfingers 7.12502 -0 0
lthumb 16.2505 72.0288 -0.000493527
rclavicle -5.21499e-15 1.88348e-14 0
rhumerus 49.4627 -4.39886 -59.8225
rradius 20.0483 -0 0
rwrist 18.8854 0 0
rhand -21.6983 -33.7744 -0.00226631
rfingers 7.12502 -0 0
rthumb 4.70005 -63.7018 -0.00214997
412
root 7.28618 13.7729 -34.2291 161.034 75.3067 154.606
lfemur 17.2963 -2.64739 -9.84264
ltibia 25.7265 -0 0
lfoot -24.0634 33.441 -0.000666788
ltoes -25.0324 0 0
rfemur -66.4863 -15.8268 8.57248
rtibia 79.0319 -0 0
rfoot -13.9788 12.7028 2.05949e-05
rtoes 7.55786 -0 0
lowerback 8.45776 4.89006 -11.1523
upperback -2.49416 5.2306 -1.16683
thorax -8.35917 3.08297 4.12084
lowerneck 0.397819 -11.6779 -11.0668
upperneck 3.10586 -15.8615 9.39807
head 2.48746 -7.9207 4.00959
lclavicle -5.21499e-15 1.88348e-14 0
lhumerus -70.0915 -20.2018 106.41
lradius 100.243 -0 0
lwrist 50.7178 0 0
lhand -9.7008 42.6469 -0.000459444
lfingers 7.12502 -0 0
lthumb 16.2718 71.984 -0.000460332
rclavicle -5.21499e-15 1.88348e-14 0
rhumerus 49.487 -4.39006 -59.7846
rradius 20.0479 -0 0
rwrist 18.859 0 0
rhand -21.6377 -33.8468 -0.00211387
rfingers 7.12502 -0 0
rthumb 4.75862 -63.7729 -0.00200536
413
root 7.29886 13.7711 -34.2261 161.313 75.2807 154.861
lfemur 17.1593 -2.65669 -9.78335
ltibia 25.9202 -0 0
lfoot -24.1427 33.4571 -0.000597945
ltoes -24.8293 0 0
rfemur -66.486 -15.8463 8.60074
rtibia 79.0221 -0 0
rfoot -13.9848 12.6961 1.84686e-05
rtoes 7.36476 -0 0
lowerback 8.45432 4.86736 -11.1113
upperback -2.50151 5.20599 -1.14222
thorax -8.3593 3.06983 4.12954
lowerneck 0.381552 -11.6636 -11.081
upperneck 3.07787 -15.8394 9.39964
head 2.48071 -7.90965 4.01341
lclavicle -5.21499e-15 1.88348e-14 0
lhumerus -70.1066 -20.1648 106.421
lradius 100.228 -0 0
lwrist 50.6995 0 0
lhand -9.67956 42.6055 -0.000412009
lfingers 7.12502 -0 0
lthumb 16.2922 71.941 -0.000412805
rclavicle -5.21499e-15 1.88348e-14 0
rhumerus 49.5104 -4.38163 -59.7483
rradius 20.0476 -0 0
rwrist 18.8336 0 0
rhand -21.5795 -33.9162 -0.00189562
rfingers 7.12502 -0 0
rthumb 4.81481 -63.8411 -0.00179832
